<svg xmlns="http://www.w3.org/2000/svg" viewBox="0 0 850 479" width="100%">
<defs><style>

    .bg{fill:#FFF}
    .fs1{stop-color:#FFF;stop-opacity:0}
    .fs2{stop-color:#FFF;stop-opacity:1}
    .ch{fill:#0969DA;font-family:monospace;font-size:14px}
    .cd{opacity:.15} .cm{opacity:.28} .cb{opacity:.45}
    .cl{opacity:.7;fill:#0550AE}
    .pb{fill:#FFF;fill-opacity:.88}
    .ps{stroke:#D0D7DE;stroke-width:1;fill:none}
    .tt{fill:#1F2328;font-family:-apple-system,BlinkMacSystemFont,"Segoe UI",Helvetica,Arial,sans-serif;font-weight:600}
    .ts{fill:#57606A;font-family:-apple-system,BlinkMacSystemFont,"Segoe UI",Helvetica,Arial,sans-serif}
    .tn{fill:#0969DA;font-family:-apple-system,BlinkMacSystemFont,"Segoe UI",Helvetica,Arial,sans-serif;font-weight:600}
    .tl{fill:#1F2328;font-family:-apple-system,BlinkMacSystemFont,"Segoe UI",Helvetica,Arial,sans-serif}
    .tp{fill:#57606A;font-family:-apple-system,BlinkMacSystemFont,"Segoe UI",Helvetica,Arial,sans-serif;font-size:12px}
    .div{stroke:#D0D7DE;stroke-width:1}
    .ring{fill:none;stroke:#0969DA;stroke-width:3}

@keyframes r0{0%{transform:translateY(-320px)}100%{transform:translateY(499px)}}
@keyframes r1{0%{transform:translateY(-208px)}100%{transform:translateY(499px)}}
@keyframes r2{0%{transform:translateY(-240px)}100%{transform:translateY(499px)}}
@keyframes r3{0%{transform:translateY(-176px)}100%{transform:translateY(499px)}}
@keyframes r4{0%{transform:translateY(-208px)}100%{transform:translateY(499px)}}
@keyframes r5{0%{transform:translateY(-320px)}100%{transform:translateY(499px)}}
@keyframes r6{0%{transform:translateY(-160px)}100%{transform:translateY(499px)}}
@keyframes r7{0%{transform:translateY(-320px)}100%{transform:translateY(499px)}}
@keyframes r8{0%{transform:translateY(-160px)}100%{transform:translateY(499px)}}
@keyframes r9{0%{transform:translateY(-272px)}100%{transform:translateY(499px)}}
@keyframes r10{0%{transform:translateY(-336px)}100%{transform:translateY(499px)}}
@keyframes r11{0%{transform:translateY(-304px)}100%{transform:translateY(499px)}}
@keyframes r12{0%{transform:translateY(-320px)}100%{transform:translateY(499px)}}
@keyframes r13{0%{transform:translateY(-176px)}100%{transform:translateY(499px)}}
@keyframes r14{0%{transform:translateY(-208px)}100%{transform:translateY(499px)}}
@keyframes r15{0%{transform:translateY(-304px)}100%{transform:translateY(499px)}}
@keyframes r16{0%{transform:translateY(-160px)}100%{transform:translateY(499px)}}
@keyframes r17{0%{transform:translateY(-224px)}100%{transform:translateY(499px)}}
@keyframes r18{0%{transform:translateY(-352px)}100%{transform:translateY(499px)}}
@keyframes r19{0%{transform:translateY(-336px)}100%{transform:translateY(499px)}}
@keyframes r20{0%{transform:translateY(-192px)}100%{transform:translateY(499px)}}
@keyframes r21{0%{transform:translateY(-320px)}100%{transform:translateY(499px)}}
@keyframes r22{0%{transform:translateY(-304px)}100%{transform:translateY(499px)}}
@keyframes r23{0%{transform:translateY(-288px)}100%{transform:translateY(499px)}}
@keyframes r24{0%{transform:translateY(-320px)}100%{transform:translateY(499px)}}
@keyframes r25{0%{transform:translateY(-256px)}100%{transform:translateY(499px)}}
@keyframes r26{0%{transform:translateY(-352px)}100%{transform:translateY(499px)}}
@keyframes r27{0%{transform:translateY(-336px)}100%{transform:translateY(499px)}}
@keyframes r28{0%{transform:translateY(-224px)}100%{transform:translateY(499px)}}
@keyframes r29{0%{transform:translateY(-256px)}100%{transform:translateY(499px)}}
@keyframes r30{0%{transform:translateY(-288px)}100%{transform:translateY(499px)}}
@keyframes r31{0%{transform:translateY(-320px)}100%{transform:translateY(499px)}}
@keyframes r32{0%{transform:translateY(-336px)}100%{transform:translateY(499px)}}
@keyframes r33{0%{transform:translateY(-352px)}100%{transform:translateY(499px)}}
@keyframes r34{0%{transform:translateY(-352px)}100%{transform:translateY(499px)}}
@keyframes r35{0%{transform:translateY(-336px)}100%{transform:translateY(499px)}}
@keyframes r36{0%{transform:translateY(-288px)}100%{transform:translateY(499px)}}
@keyframes r37{0%{transform:translateY(-224px)}100%{transform:translateY(499px)}}
@keyframes r38{0%{transform:translateY(-288px)}100%{transform:translateY(499px)}}
@keyframes r39{0%{transform:translateY(-256px)}100%{transform:translateY(499px)}}
@keyframes r40{0%{transform:translateY(-192px)}100%{transform:translateY(499px)}}
@keyframes r41{0%{transform:translateY(-272px)}100%{transform:translateY(499px)}}
@keyframes r42{0%{transform:translateY(-288px)}100%{transform:translateY(499px)}}
@keyframes r43{0%{transform:translateY(-304px)}100%{transform:translateY(499px)}}
</style>
<linearGradient id="f" x1="0" y1="0" x2="0" y2="1"><stop offset="0%" class="fs1"/><stop offset="75%" class="fs1"/><stop offset="100%" class="fs2"/></linearGradient>
<clipPath id="c"><rect width="850" height="479" rx="6"/></clipPath>
</defs>
<rect class="bg" width="850" height="479" rx="6"/>
<g clip-path="url(#c)">
<g style="transform:translateY(-320px);animation:r0 7.0s linear 0.2s infinite">
<text class="ch cd" x="9.4" y="0">ク</text>
<text class="ch cd" x="9.4" y="16">イ</text>
<text class="ch cd" x="9.4" y="32">1</text>
<text class="ch cd" x="9.4" y="48">ツ</text>
<text class="ch cd" x="9.4" y="64">タ</text>
<text class="ch cd" x="9.4" y="80">ソ</text>
<text class="ch cd" x="9.4" y="96">ケ</text>
<text class="ch cd" x="9.4" y="112">1</text>
<text class="ch cd" x="9.4" y="128">キ</text>
<text class="ch cd" x="9.4" y="144">ワ</text>
<text class="ch cd" x="9.4" y="160">1</text>
<text class="ch cd" x="9.4" y="176">モ</text>
<text class="ch cd" x="9.4" y="192">カ</text>
<text class="ch cd" x="9.4" y="208">ヨ</text>
<text class="ch cm" x="9.4" y="224">フ</text>
<text class="ch cm" x="9.4" y="240">ウ</text>
<text class="ch cm" x="9.4" y="256">イ</text>
<text class="ch cb" x="9.4" y="272">カ</text>
<text class="ch cb" x="9.4" y="288">セ</text>
<text class="ch cl" x="9.4" y="304">ソ</text>
</g>
<g style="transform:translateY(-208px);animation:r1 8.8s linear 5.6s infinite">
<text class="ch cd" x="28.3" y="0">ン</text>
<text class="ch cd" x="28.3" y="16">レ</text>
<text class="ch cd" x="28.3" y="32">ヲ</text>
<text class="ch cd" x="28.3" y="48">モ</text>
<text class="ch cd" x="28.3" y="64">ヒ</text>
<text class="ch cd" x="28.3" y="80">ソ</text>
<text class="ch cd" x="28.3" y="96">ヘ</text>
<text class="ch cm" x="28.3" y="112">ヨ</text>
<text class="ch cm" x="28.3" y="128">ツ</text>
<text class="ch cm" x="28.3" y="144">5</text>
<text class="ch cb" x="28.3" y="160">9</text>
<text class="ch cb" x="28.3" y="176">ア</text>
<text class="ch cl" x="28.3" y="192">2</text>
</g>
<g style="transform:translateY(-240px);animation:r2 4.3s linear 3.7s infinite">
<text class="ch cd" x="47.2" y="0">ツ</text>
<text class="ch cd" x="47.2" y="16">コ</text>
<text class="ch cd" x="47.2" y="32">セ</text>
<text class="ch cd" x="47.2" y="48">2</text>
<text class="ch cd" x="47.2" y="64">ニ</text>
<text class="ch cd" x="47.2" y="80">キ</text>
<text class="ch cd" x="47.2" y="96">カ</text>
<text class="ch cd" x="47.2" y="112">ノ</text>
<text class="ch cd" x="47.2" y="128">キ</text>
<text class="ch cm" x="47.2" y="144">ヌ</text>
<text class="ch cm" x="47.2" y="160">8</text>
<text class="ch cm" x="47.2" y="176">ヌ</text>
<text class="ch cb" x="47.2" y="192">ラ</text>
<text class="ch cb" x="47.2" y="208">チ</text>
<text class="ch cl" x="47.2" y="224">5</text>
</g>
<g style="transform:translateY(-176px);animation:r3 8.2s linear 0.4s infinite">
<text class="ch cd" x="66.1" y="0">ノ</text>
<text class="ch cd" x="66.1" y="16">カ</text>
<text class="ch cd" x="66.1" y="32">ヤ</text>
<text class="ch cd" x="66.1" y="48">テ</text>
<text class="ch cd" x="66.1" y="64">7</text>
<text class="ch cm" x="66.1" y="80">ル</text>
<text class="ch cm" x="66.1" y="96">リ</text>
<text class="ch cm" x="66.1" y="112">9</text>
<text class="ch cb" x="66.1" y="128">ネ</text>
<text class="ch cb" x="66.1" y="144">ユ</text>
<text class="ch cl" x="66.1" y="160">ス</text>
</g>
<g style="transform:translateY(-208px);animation:r4 5.0s linear 2.8s infinite">
<text class="ch cd" x="85.0" y="0">3</text>
<text class="ch cd" x="85.0" y="16">テ</text>
<text class="ch cd" x="85.0" y="32">カ</text>
<text class="ch cd" x="85.0" y="48">8</text>
<text class="ch cd" x="85.0" y="64">ソ</text>
<text class="ch cd" x="85.0" y="80">9</text>
<text class="ch cd" x="85.0" y="96">キ</text>
<text class="ch cm" x="85.0" y="112">ノ</text>
<text class="ch cm" x="85.0" y="128">ツ</text>
<text class="ch cm" x="85.0" y="144">ホ</text>
<text class="ch cb" x="85.0" y="160">ル</text>
<text class="ch cb" x="85.0" y="176">7</text>
<text class="ch cl" x="85.0" y="192">ネ</text>
</g>
<g style="transform:translateY(-320px);animation:r5 5.9s linear 6.1s infinite">
<text class="ch cd" x="103.9" y="0">ツ</text>
<text class="ch cd" x="103.9" y="16">ヲ</text>
<text class="ch cd" x="103.9" y="32">ワ</text>
<text class="ch cd" x="103.9" y="48">レ</text>
<text class="ch cd" x="103.9" y="64">オ</text>
<text class="ch cd" x="103.9" y="80">ラ</text>
<text class="ch cd" x="103.9" y="96">ル</text>
<text class="ch cd" x="103.9" y="112">サ</text>
<text class="ch cd" x="103.9" y="128">モ</text>
<text class="ch cd" x="103.9" y="144">0</text>
<text class="ch cd" x="103.9" y="160">タ</text>
<text class="ch cd" x="103.9" y="176">サ</text>
<text class="ch cd" x="103.9" y="192">ホ</text>
<text class="ch cd" x="103.9" y="208">ノ</text>
<text class="ch cm" x="103.9" y="224">ツ</text>
<text class="ch cm" x="103.9" y="240">ル</text>
<text class="ch cm" x="103.9" y="256">ヲ</text>
<text class="ch cb" x="103.9" y="272">ヤ</text>
<text class="ch cb" x="103.9" y="288">ソ</text>
<text class="ch cl" x="103.9" y="304">ワ</text>
</g>
<g style="transform:translateY(-160px);animation:r6 9.3s linear 2.5s infinite">
<text class="ch cd" x="122.8" y="0">ソ</text>
<text class="ch cd" x="122.8" y="16">6</text>
<text class="ch cd" x="122.8" y="32">ウ</text>
<text class="ch cd" x="122.8" y="48">5</text>
<text class="ch cm" x="122.8" y="64">ナ</text>
<text class="ch cm" x="122.8" y="80">ハ</text>
<text class="ch cm" x="122.8" y="96">ツ</text>
<text class="ch cb" x="122.8" y="112">オ</text>
<text class="ch cb" x="122.8" y="128">セ</text>
<text class="ch cl" x="122.8" y="144">ユ</text>
</g>
<g style="transform:translateY(-320px);animation:r7 7.1s linear 0.7s infinite">
<text class="ch cd" x="141.7" y="0">ミ</text>
<text class="ch cd" x="141.7" y="16">ハ</text>
<text class="ch cd" x="141.7" y="32">レ</text>
<text class="ch cd" x="141.7" y="48">ホ</text>
<text class="ch cd" x="141.7" y="64">コ</text>
<text class="ch cd" x="141.7" y="80">チ</text>
<text class="ch cd" x="141.7" y="96">ケ</text>
<text class="ch cd" x="141.7" y="112">タ</text>
<text class="ch cd" x="141.7" y="128">1</text>
<text class="ch cd" x="141.7" y="144">ヤ</text>
<text class="ch cd" x="141.7" y="160">モ</text>
<text class="ch cd" x="141.7" y="176">チ</text>
<text class="ch cd" x="141.7" y="192">1</text>
<text class="ch cd" x="141.7" y="208">ヨ</text>
<text class="ch cm" x="141.7" y="224">フ</text>
<text class="ch cm" x="141.7" y="240">ヨ</text>
<text class="ch cm" x="141.7" y="256">ハ</text>
<text class="ch cb" x="141.7" y="272">ネ</text>
<text class="ch cb" x="141.7" y="288">ソ</text>
<text class="ch cl" x="141.7" y="304">ケ</text>
</g>
<g style="transform:translateY(-160px);animation:r8 6.3s linear 4.8s infinite">
<text class="ch cd" x="160.6" y="0">9</text>
<text class="ch cd" x="160.6" y="16">ク</text>
<text class="ch cd" x="160.6" y="32">コ</text>
<text class="ch cd" x="160.6" y="48">ル</text>
<text class="ch cm" x="160.6" y="64">サ</text>
<text class="ch cm" x="160.6" y="80">4</text>
<text class="ch cm" x="160.6" y="96">ワ</text>
<text class="ch cb" x="160.6" y="112">フ</text>
<text class="ch cb" x="160.6" y="128">ラ</text>
<text class="ch cl" x="160.6" y="144">オ</text>
</g>
<g style="transform:translateY(-272px);animation:r9 6.6s linear 3.6s infinite">
<text class="ch cd" x="179.4" y="0">メ</text>
<text class="ch cd" x="179.4" y="16">チ</text>
<text class="ch cd" x="179.4" y="32">ヤ</text>
<text class="ch cd" x="179.4" y="48">9</text>
<text class="ch cd" x="179.4" y="64">ア</text>
<text class="ch cd" x="179.4" y="80">ワ</text>
<text class="ch cd" x="179.4" y="96">0</text>
<text class="ch cd" x="179.4" y="112">ク</text>
<text class="ch cd" x="179.4" y="128">ワ</text>
<text class="ch cd" x="179.4" y="144">モ</text>
<text class="ch cd" x="179.4" y="160">2</text>
<text class="ch cm" x="179.4" y="176">ツ</text>
<text class="ch cm" x="179.4" y="192">3</text>
<text class="ch cm" x="179.4" y="208">レ</text>
<text class="ch cb" x="179.4" y="224">ニ</text>
<text class="ch cb" x="179.4" y="240">ク</text>
<text class="ch cl" x="179.4" y="256">テ</text>
</g>
<g style="transform:translateY(-336px);animation:r10 9.5s linear 7.3s infinite">
<text class="ch cd" x="198.3" y="0">0</text>
<text class="ch cd" x="198.3" y="16">チ</text>
<text class="ch cd" x="198.3" y="32">ム</text>
<text class="ch cd" x="198.3" y="48">2</text>
<text class="ch cd" x="198.3" y="64">シ</text>
<text class="ch cd" x="198.3" y="80">ム</text>
<text class="ch cd" x="198.3" y="96">キ</text>
<text class="ch cd" x="198.3" y="112">9</text>
<text class="ch cd" x="198.3" y="128">ル</text>
<text class="ch cd" x="198.3" y="144">ト</text>
<text class="ch cd" x="198.3" y="160">7</text>
<text class="ch cd" x="198.3" y="176">ル</text>
<text class="ch cd" x="198.3" y="192">ム</text>
<text class="ch cd" x="198.3" y="208">ラ</text>
<text class="ch cd" x="198.3" y="224">ス</text>
<text class="ch cm" x="198.3" y="240">コ</text>
<text class="ch cm" x="198.3" y="256">ネ</text>
<text class="ch cm" x="198.3" y="272">2</text>
<text class="ch cb" x="198.3" y="288">サ</text>
<text class="ch cb" x="198.3" y="304">モ</text>
<text class="ch cl" x="198.3" y="320">3</text>
</g>
<g style="transform:translateY(-304px);animation:r11 7.2s linear 1.0s infinite">
<text class="ch cd" x="217.2" y="0">ナ</text>
<text class="ch cd" x="217.2" y="16">ミ</text>
<text class="ch cd" x="217.2" y="32">イ</text>
<text class="ch cd" x="217.2" y="48">ク</text>
<text class="ch cd" x="217.2" y="64">ネ</text>
<text class="ch cd" x="217.2" y="80">7</text>
<text class="ch cd" x="217.2" y="96">5</text>
<text class="ch cd" x="217.2" y="112">ト</text>
<text class="ch cd" x="217.2" y="128">タ</text>
<text class="ch cd" x="217.2" y="144">エ</text>
<text class="ch cd" x="217.2" y="160">タ</text>
<text class="ch cd" x="217.2" y="176">ユ</text>
<text class="ch cd" x="217.2" y="192">カ</text>
<text class="ch cm" x="217.2" y="208">カ</text>
<text class="ch cm" x="217.2" y="224">0</text>
<text class="ch cm" x="217.2" y="240">ミ</text>
<text class="ch cb" x="217.2" y="256">6</text>
<text class="ch cb" x="217.2" y="272">オ</text>
<text class="ch cl" x="217.2" y="288">2</text>
</g>
<g style="transform:translateY(-320px);animation:r12 6.6s linear 4.1s infinite">
<text class="ch cd" x="236.1" y="0">マ</text>
<text class="ch cd" x="236.1" y="16">ヤ</text>
<text class="ch cd" x="236.1" y="32">サ</text>
<text class="ch cd" x="236.1" y="48">チ</text>
<text class="ch cd" x="236.1" y="64">メ</text>
<text class="ch cd" x="236.1" y="80">9</text>
<text class="ch cd" x="236.1" y="96">ラ</text>
<text class="ch cd" x="236.1" y="112">フ</text>
<text class="ch cd" x="236.1" y="128">セ</text>
<text class="ch cd" x="236.1" y="144">モ</text>
<text class="ch cd" x="236.1" y="160">2</text>
<text class="ch cd" x="236.1" y="176">0</text>
<text class="ch cd" x="236.1" y="192">ヲ</text>
<text class="ch cd" x="236.1" y="208">ス</text>
<text class="ch cm" x="236.1" y="224">ン</text>
<text class="ch cm" x="236.1" y="240">ト</text>
<text class="ch cm" x="236.1" y="256">ハ</text>
<text class="ch cb" x="236.1" y="272">ロ</text>
<text class="ch cb" x="236.1" y="288">レ</text>
<text class="ch cl" x="236.1" y="304">ネ</text>
</g>
<g style="transform:translateY(-176px);animation:r13 4.4s linear 5.0s infinite">
<text class="ch cd" x="255.0" y="0">タ</text>
<text class="ch cd" x="255.0" y="16">ソ</text>
<text class="ch cd" x="255.0" y="32">オ</text>
<text class="ch cd" x="255.0" y="48">ニ</text>
<text class="ch cd" x="255.0" y="64">イ</text>
<text class="ch cm" x="255.0" y="80">ヨ</text>
<text class="ch cm" x="255.0" y="96">ヤ</text>
<text class="ch cm" x="255.0" y="112">ソ</text>
<text class="ch cb" x="255.0" y="128">ヨ</text>
<text class="ch cb" x="255.0" y="144">ソ</text>
<text class="ch cl" x="255.0" y="160">ア</text>
</g>
<g style="transform:translateY(-208px);animation:r14 8.3s linear 7.1s infinite">
<text class="ch cd" x="273.9" y="0">オ</text>
<text class="ch cd" x="273.9" y="16">ウ</text>
<text class="ch cd" x="273.9" y="32">9</text>
<text class="ch cd" x="273.9" y="48">ニ</text>
<text class="ch cd" x="273.9" y="64">オ</text>
<text class="ch cd" x="273.9" y="80">ム</text>
<text class="ch cd" x="273.9" y="96">タ</text>
<text class="ch cm" x="273.9" y="112">ツ</text>
<text class="ch cm" x="273.9" y="128">ロ</text>
<text class="ch cm" x="273.9" y="144">ミ</text>
<text class="ch cb" x="273.9" y="160">セ</text>
<text class="ch cb" x="273.9" y="176">モ</text>
<text class="ch cl" x="273.9" y="192">ケ</text>
</g>
<g style="transform:translateY(-304px);animation:r15 7.9s linear 5.2s infinite">
<text class="ch cd" x="292.8" y="0">マ</text>
<text class="ch cd" x="292.8" y="16">タ</text>
<text class="ch cd" x="292.8" y="32">4</text>
<text class="ch cd" x="292.8" y="48">マ</text>
<text class="ch cd" x="292.8" y="64">5</text>
<text class="ch cd" x="292.8" y="80">ヒ</text>
<text class="ch cd" x="292.8" y="96">ス</text>
<text class="ch cd" x="292.8" y="112">キ</text>
<text class="ch cd" x="292.8" y="128">キ</text>
<text class="ch cd" x="292.8" y="144">ロ</text>
<text class="ch cd" x="292.8" y="160">フ</text>
<text class="ch cd" x="292.8" y="176">ヌ</text>
<text class="ch cd" x="292.8" y="192">フ</text>
<text class="ch cm" x="292.8" y="208">ヒ</text>
<text class="ch cm" x="292.8" y="224">ホ</text>
<text class="ch cm" x="292.8" y="240">9</text>
<text class="ch cb" x="292.8" y="256">0</text>
<text class="ch cb" x="292.8" y="272">エ</text>
<text class="ch cl" x="292.8" y="288">ワ</text>
</g>
<g style="transform:translateY(-160px);animation:r16 6.7s linear 3.4s infinite">
<text class="ch cd" x="311.7" y="0">ハ</text>
<text class="ch cd" x="311.7" y="16">0</text>
<text class="ch cd" x="311.7" y="32">ニ</text>
<text class="ch cd" x="311.7" y="48">5</text>
<text class="ch cm" x="311.7" y="64">9</text>
<text class="ch cm" x="311.7" y="80">キ</text>
<text class="ch cm" x="311.7" y="96">タ</text>
<text class="ch cb" x="311.7" y="112">ス</text>
<text class="ch cb" x="311.7" y="128">ス</text>
<text class="ch cl" x="311.7" y="144">モ</text>
</g>
<g style="transform:translateY(-224px);animation:r17 4.1s linear 0.7s infinite">
<text class="ch cd" x="330.6" y="0">ホ</text>
<text class="ch cd" x="330.6" y="16">タ</text>
<text class="ch cd" x="330.6" y="32">9</text>
<text class="ch cd" x="330.6" y="48">オ</text>
<text class="ch cd" x="330.6" y="64">ヘ</text>
<text class="ch cd" x="330.6" y="80">5</text>
<text class="ch cd" x="330.6" y="96">9</text>
<text class="ch cd" x="330.6" y="112">8</text>
<text class="ch cm" x="330.6" y="128">ヤ</text>
<text class="ch cm" x="330.6" y="144">キ</text>
<text class="ch cm" x="330.6" y="160">エ</text>
<text class="ch cb" x="330.6" y="176">レ</text>
<text class="ch cb" x="330.6" y="192">モ</text>
<text class="ch cl" x="330.6" y="208">7</text>
</g>
<g style="transform:translateY(-352px);animation:r18 10.0s linear 4.4s infinite">
<text class="ch cd" x="349.4" y="0">8</text>
<text class="ch cd" x="349.4" y="16">タ</text>
<text class="ch cd" x="349.4" y="32">サ</text>
<text class="ch cd" x="349.4" y="48">ヒ</text>
<text class="ch cd" x="349.4" y="64">ミ</text>
<text class="ch cd" x="349.4" y="80">マ</text>
<text class="ch cd" x="349.4" y="96">セ</text>
<text class="ch cd" x="349.4" y="112">9</text>
<text class="ch cd" x="349.4" y="128">ハ</text>
<text class="ch cd" x="349.4" y="144">エ</text>
<text class="ch cd" x="349.4" y="160">サ</text>
<text class="ch cd" x="349.4" y="176">ノ</text>
<text class="ch cd" x="349.4" y="192">ア</text>
<text class="ch cd" x="349.4" y="208">ノ</text>
<text class="ch cd" x="349.4" y="224">チ</text>
<text class="ch cd" x="349.4" y="240">4</text>
<text class="ch cm" x="349.4" y="256">4</text>
<text class="ch cm" x="349.4" y="272">ホ</text>
<text class="ch cm" x="349.4" y="288">テ</text>
<text class="ch cb" x="349.4" y="304">フ</text>
<text class="ch cb" x="349.4" y="320">ヲ</text>
<text class="ch cl" x="349.4" y="336">0</text>
</g>
<g style="transform:translateY(-336px);animation:r19 9.8s linear 0.6s infinite">
<text class="ch cd" x="368.3" y="0">ミ</text>
<text class="ch cd" x="368.3" y="16">コ</text>
<text class="ch cd" x="368.3" y="32">ス</text>
<text class="ch cd" x="368.3" y="48">テ</text>
<text class="ch cd" x="368.3" y="64">セ</text>
<text class="ch cd" x="368.3" y="80">エ</text>
<text class="ch cd" x="368.3" y="96">ヨ</text>
<text class="ch cd" x="368.3" y="112">1</text>
<text class="ch cd" x="368.3" y="128">モ</text>
<text class="ch cd" x="368.3" y="144">エ</text>
<text class="ch cd" x="368.3" y="160">1</text>
<text class="ch cd" x="368.3" y="176">ナ</text>
<text class="ch cd" x="368.3" y="192">エ</text>
<text class="ch cd" x="368.3" y="208">エ</text>
<text class="ch cd" x="368.3" y="224">ヨ</text>
<text class="ch cm" x="368.3" y="240">マ</text>
<text class="ch cm" x="368.3" y="256">ム</text>
<text class="ch cm" x="368.3" y="272">8</text>
<text class="ch cb" x="368.3" y="288">メ</text>
<text class="ch cb" x="368.3" y="304">サ</text>
<text class="ch cl" x="368.3" y="320">エ</text>
</g>
<g style="transform:translateY(-192px);animation:r20 4.2s linear 0.7s infinite">
<text class="ch cd" x="387.2" y="0">オ</text>
<text class="ch cd" x="387.2" y="16">ラ</text>
<text class="ch cd" x="387.2" y="32">オ</text>
<text class="ch cd" x="387.2" y="48">ワ</text>
<text class="ch cd" x="387.2" y="64">9</text>
<text class="ch cd" x="387.2" y="80">タ</text>
<text class="ch cm" x="387.2" y="96">ハ</text>
<text class="ch cm" x="387.2" y="112">ク</text>
<text class="ch cm" x="387.2" y="128">ユ</text>
<text class="ch cb" x="387.2" y="144">タ</text>
<text class="ch cb" x="387.2" y="160">ヨ</text>
<text class="ch cl" x="387.2" y="176">ラ</text>
</g>
<g style="transform:translateY(-320px);animation:r21 4.1s linear 5.0s infinite">
<text class="ch cd" x="406.1" y="0">ヨ</text>
<text class="ch cd" x="406.1" y="16">ユ</text>
<text class="ch cd" x="406.1" y="32">メ</text>
<text class="ch cd" x="406.1" y="48">ナ</text>
<text class="ch cd" x="406.1" y="64">チ</text>
<text class="ch cd" x="406.1" y="80">セ</text>
<text class="ch cd" x="406.1" y="96">ロ</text>
<text class="ch cd" x="406.1" y="112">ン</text>
<text class="ch cd" x="406.1" y="128">ナ</text>
<text class="ch cd" x="406.1" y="144">タ</text>
<text class="ch cd" x="406.1" y="160">チ</text>
<text class="ch cd" x="406.1" y="176">ハ</text>
<text class="ch cd" x="406.1" y="192">ケ</text>
<text class="ch cd" x="406.1" y="208">ロ</text>
<text class="ch cm" x="406.1" y="224">レ</text>
<text class="ch cm" x="406.1" y="240">ト</text>
<text class="ch cm" x="406.1" y="256">ホ</text>
<text class="ch cb" x="406.1" y="272">ナ</text>
<text class="ch cb" x="406.1" y="288">2</text>
<text class="ch cl" x="406.1" y="304">オ</text>
</g>
<g style="transform:translateY(-304px);animation:r22 9.9s linear 6.5s infinite">
<text class="ch cd" x="425.0" y="0">キ</text>
<text class="ch cd" x="425.0" y="16">オ</text>
<text class="ch cd" x="425.0" y="32">モ</text>
<text class="ch cd" x="425.0" y="48">セ</text>
<text class="ch cd" x="425.0" y="64">ム</text>
<text class="ch cd" x="425.0" y="80">チ</text>
<text class="ch cd" x="425.0" y="96">ケ</text>
<text class="ch cd" x="425.0" y="112">ヌ</text>
<text class="ch cd" x="425.0" y="128">オ</text>
<text class="ch cd" x="425.0" y="144">タ</text>
<text class="ch cd" x="425.0" y="160">ネ</text>
<text class="ch cd" x="425.0" y="176">テ</text>
<text class="ch cd" x="425.0" y="192">サ</text>
<text class="ch cm" x="425.0" y="208">ヘ</text>
<text class="ch cm" x="425.0" y="224">7</text>
<text class="ch cm" x="425.0" y="240">モ</text>
<text class="ch cb" x="425.0" y="256">ン</text>
<text class="ch cb" x="425.0" y="272">ト</text>
<text class="ch cl" x="425.0" y="288">リ</text>
</g>
<g style="transform:translateY(-288px);animation:r23 8.3s linear 1.6s infinite">
<text class="ch cd" x="443.9" y="0">ア</text>
<text class="ch cd" x="443.9" y="16">ロ</text>
<text class="ch cd" x="443.9" y="32">6</text>
<text class="ch cd" x="443.9" y="48">ヤ</text>
<text class="ch cd" x="443.9" y="64">ト</text>
<text class="ch cd" x="443.9" y="80">ロ</text>
<text class="ch cd" x="443.9" y="96">キ</text>
<text class="ch cd" x="443.9" y="112">ケ</text>
<text class="ch cd" x="443.9" y="128">チ</text>
<text class="ch cd" x="443.9" y="144">ク</text>
<text class="ch cd" x="443.9" y="160">キ</text>
<text class="ch cd" x="443.9" y="176">1</text>
<text class="ch cm" x="443.9" y="192">ヤ</text>
<text class="ch cm" x="443.9" y="208">コ</text>
<text class="ch cm" x="443.9" y="224">ツ</text>
<text class="ch cb" x="443.9" y="240">テ</text>
<text class="ch cb" x="443.9" y="256">ラ</text>
<text class="ch cl" x="443.9" y="272">セ</text>
</g>
<g style="transform:translateY(-320px);animation:r24 8.4s linear 4.4s infinite">
<text class="ch cd" x="462.8" y="0">8</text>
<text class="ch cd" x="462.8" y="16">チ</text>
<text class="ch cd" x="462.8" y="32">ム</text>
<text class="ch cd" x="462.8" y="48">ミ</text>
<text class="ch cd" x="462.8" y="64">チ</text>
<text class="ch cd" x="462.8" y="80">8</text>
<text class="ch cd" x="462.8" y="96">エ</text>
<text class="ch cd" x="462.8" y="112">カ</text>
<text class="ch cd" x="462.8" y="128">ル</text>
<text class="ch cd" x="462.8" y="144">フ</text>
<text class="ch cd" x="462.8" y="160">7</text>
<text class="ch cd" x="462.8" y="176">ツ</text>
<text class="ch cd" x="462.8" y="192">ウ</text>
<text class="ch cd" x="462.8" y="208">ア</text>
<text class="ch cm" x="462.8" y="224">ニ</text>
<text class="ch cm" x="462.8" y="240">3</text>
<text class="ch cm" x="462.8" y="256">ケ</text>
<text class="ch cb" x="462.8" y="272">ル</text>
<text class="ch cb" x="462.8" y="288">チ</text>
<text class="ch cl" x="462.8" y="304">サ</text>
</g>
<g style="transform:translateY(-256px);animation:r25 5.8s linear 7.2s infinite">
<text class="ch cd" x="481.7" y="0">ヤ</text>
<text class="ch cd" x="481.7" y="16">ア</text>
<text class="ch cd" x="481.7" y="32">ク</text>
<text class="ch cd" x="481.7" y="48">オ</text>
<text class="ch cd" x="481.7" y="64">ヲ</text>
<text class="ch cd" x="481.7" y="80">コ</text>
<text class="ch cd" x="481.7" y="96">モ</text>
<text class="ch cd" x="481.7" y="112">ウ</text>
<text class="ch cd" x="481.7" y="128">7</text>
<text class="ch cd" x="481.7" y="144">ネ</text>
<text class="ch cm" x="481.7" y="160">ヨ</text>
<text class="ch cm" x="481.7" y="176">ヤ</text>
<text class="ch cm" x="481.7" y="192">コ</text>
<text class="ch cb" x="481.7" y="208">フ</text>
<text class="ch cb" x="481.7" y="224">ケ</text>
<text class="ch cl" x="481.7" y="240">ウ</text>
</g>
<g style="transform:translateY(-352px);animation:r26 9.3s linear 0.2s infinite">
<text class="ch cd" x="500.6" y="0">9</text>
<text class="ch cd" x="500.6" y="16">ウ</text>
<text class="ch cd" x="500.6" y="32">ヌ</text>
<text class="ch cd" x="500.6" y="48">セ</text>
<text class="ch cd" x="500.6" y="64">ワ</text>
<text class="ch cd" x="500.6" y="80">タ</text>
<text class="ch cd" x="500.6" y="96">ロ</text>
<text class="ch cd" x="500.6" y="112">キ</text>
<text class="ch cd" x="500.6" y="128">ヌ</text>
<text class="ch cd" x="500.6" y="144">3</text>
<text class="ch cd" x="500.6" y="160">ヤ</text>
<text class="ch cd" x="500.6" y="176">9</text>
<text class="ch cd" x="500.6" y="192">ヒ</text>
<text class="ch cd" x="500.6" y="208">リ</text>
<text class="ch cd" x="500.6" y="224">1</text>
<text class="ch cd" x="500.6" y="240">コ</text>
<text class="ch cm" x="500.6" y="256">タ</text>
<text class="ch cm" x="500.6" y="272">9</text>
<text class="ch cm" x="500.6" y="288">サ</text>
<text class="ch cb" x="500.6" y="304">5</text>
<text class="ch cb" x="500.6" y="320">5</text>
<text class="ch cl" x="500.6" y="336">シ</text>
</g>
<g style="transform:translateY(-336px);animation:r27 8.9s linear 3.7s infinite">
<text class="ch cd" x="519.4" y="0">ニ</text>
<text class="ch cd" x="519.4" y="16">4</text>
<text class="ch cd" x="519.4" y="32">ヒ</text>
<text class="ch cd" x="519.4" y="48">5</text>
<text class="ch cd" x="519.4" y="64">ロ</text>
<text class="ch cd" x="519.4" y="80">9</text>
<text class="ch cd" x="519.4" y="96">1</text>
<text class="ch cd" x="519.4" y="112">5</text>
<text class="ch cd" x="519.4" y="128">タ</text>
<text class="ch cd" x="519.4" y="144">ツ</text>
<text class="ch cd" x="519.4" y="160">サ</text>
<text class="ch cd" x="519.4" y="176">4</text>
<text class="ch cd" x="519.4" y="192">ヲ</text>
<text class="ch cd" x="519.4" y="208">キ</text>
<text class="ch cd" x="519.4" y="224">ノ</text>
<text class="ch cm" x="519.4" y="240">9</text>
<text class="ch cm" x="519.4" y="256">ウ</text>
<text class="ch cm" x="519.4" y="272">8</text>
<text class="ch cb" x="519.4" y="288">マ</text>
<text class="ch cb" x="519.4" y="304">ソ</text>
<text class="ch cl" x="519.4" y="320">ス</text>
</g>
<g style="transform:translateY(-224px);animation:r28 5.7s linear 5.1s infinite">
<text class="ch cd" x="538.3" y="0">6</text>
<text class="ch cd" x="538.3" y="16">4</text>
<text class="ch cd" x="538.3" y="32">9</text>
<text class="ch cd" x="538.3" y="48">ソ</text>
<text class="ch cd" x="538.3" y="64">ソ</text>
<text class="ch cd" x="538.3" y="80">イ</text>
<text class="ch cd" x="538.3" y="96">ロ</text>
<text class="ch cd" x="538.3" y="112">ス</text>
<text class="ch cm" x="538.3" y="128">ハ</text>
<text class="ch cm" x="538.3" y="144">ニ</text>
<text class="ch cm" x="538.3" y="160">ツ</text>
<text class="ch cb" x="538.3" y="176">9</text>
<text class="ch cb" x="538.3" y="192">オ</text>
<text class="ch cl" x="538.3" y="208">3</text>
</g>
<g style="transform:translateY(-256px);animation:r29 8.7s linear 3.5s infinite">
<text class="ch cd" x="557.2" y="0">ワ</text>
<text class="ch cd" x="557.2" y="16">7</text>
<text class="ch cd" x="557.2" y="32">モ</text>
<text class="ch cd" x="557.2" y="48">ニ</text>
<text class="ch cd" x="557.2" y="64">イ</text>
<text class="ch cd" x="557.2" y="80">ク</text>
<text class="ch cd" x="557.2" y="96">チ</text>
<text class="ch cd" x="557.2" y="112">シ</text>
<text class="ch cd" x="557.2" y="128">ヨ</text>
<text class="ch cd" x="557.2" y="144">チ</text>
<text class="ch cm" x="557.2" y="160">ウ</text>
<text class="ch cm" x="557.2" y="176">キ</text>
<text class="ch cm" x="557.2" y="192">ラ</text>
<text class="ch cb" x="557.2" y="208">フ</text>
<text class="ch cb" x="557.2" y="224">ヌ</text>
<text class="ch cl" x="557.2" y="240">0</text>
</g>
<g style="transform:translateY(-288px);animation:r30 6.2s linear 0.6s infinite">
<text class="ch cd" x="576.1" y="0">ク</text>
<text class="ch cd" x="576.1" y="16">ノ</text>
<text class="ch cd" x="576.1" y="32">ユ</text>
<text class="ch cd" x="576.1" y="48">ス</text>
<text class="ch cd" x="576.1" y="64">チ</text>
<text class="ch cd" x="576.1" y="80">ウ</text>
<text class="ch cd" x="576.1" y="96">ン</text>
<text class="ch cd" x="576.1" y="112">フ</text>
<text class="ch cd" x="576.1" y="128">ア</text>
<text class="ch cd" x="576.1" y="144">メ</text>
<text class="ch cd" x="576.1" y="160">5</text>
<text class="ch cd" x="576.1" y="176">モ</text>
<text class="ch cm" x="576.1" y="192">ワ</text>
<text class="ch cm" x="576.1" y="208">0</text>
<text class="ch cm" x="576.1" y="224">1</text>
<text class="ch cb" x="576.1" y="240">1</text>
<text class="ch cb" x="576.1" y="256">ロ</text>
<text class="ch cl" x="576.1" y="272">ス</text>
</g>
<g style="transform:translateY(-320px);animation:r31 8.0s linear 3.0s infinite">
<text class="ch cd" x="595.0" y="0">ニ</text>
<text class="ch cd" x="595.0" y="16">リ</text>
<text class="ch cd" x="595.0" y="32">ナ</text>
<text class="ch cd" x="595.0" y="48">ロ</text>
<text class="ch cd" x="595.0" y="64">8</text>
<text class="ch cd" x="595.0" y="80">ク</text>
<text class="ch cd" x="595.0" y="96">0</text>
<text class="ch cd" x="595.0" y="112">ト</text>
<text class="ch cd" x="595.0" y="128">ム</text>
<text class="ch cd" x="595.0" y="144">ト</text>
<text class="ch cd" x="595.0" y="160">ロ</text>
<text class="ch cd" x="595.0" y="176">ヒ</text>
<text class="ch cd" x="595.0" y="192">ナ</text>
<text class="ch cd" x="595.0" y="208">ハ</text>
<text class="ch cm" x="595.0" y="224">ヲ</text>
<text class="ch cm" x="595.0" y="240">テ</text>
<text class="ch cm" x="595.0" y="256">ヤ</text>
<text class="ch cb" x="595.0" y="272">ケ</text>
<text class="ch cb" x="595.0" y="288">ス</text>
<text class="ch cl" x="595.0" y="304">ヒ</text>
</g>
<g style="transform:translateY(-336px);animation:r32 5.3s linear 3.8s infinite">
<text class="ch cd" x="613.9" y="0">シ</text>
<text class="ch cd" x="613.9" y="16">リ</text>
<text class="ch cd" x="613.9" y="32">ユ</text>
<text class="ch cd" x="613.9" y="48">ト</text>
<text class="ch cd" x="613.9" y="64">ハ</text>
<text class="ch cd" x="613.9" y="80">ヤ</text>
<text class="ch cd" x="613.9" y="96">7</text>
<text class="ch cd" x="613.9" y="112">ア</text>
<text class="ch cd" x="613.9" y="128">ト</text>
<text class="ch cd" x="613.9" y="144">テ</text>
<text class="ch cd" x="613.9" y="160">セ</text>
<text class="ch cd" x="613.9" y="176">フ</text>
<text class="ch cd" x="613.9" y="192">4</text>
<text class="ch cd" x="613.9" y="208">ヨ</text>
<text class="ch cd" x="613.9" y="224">ラ</text>
<text class="ch cm" x="613.9" y="240">レ</text>
<text class="ch cm" x="613.9" y="256">ナ</text>
<text class="ch cm" x="613.9" y="272">ホ</text>
<text class="ch cb" x="613.9" y="288">ヘ</text>
<text class="ch cb" x="613.9" y="304">ヘ</text>
<text class="ch cl" x="613.9" y="320">ワ</text>
</g>
<g style="transform:translateY(-352px);animation:r33 5.5s linear 3.8s infinite">
<text class="ch cd" x="632.8" y="0">1</text>
<text class="ch cd" x="632.8" y="16">サ</text>
<text class="ch cd" x="632.8" y="32">ロ</text>
<text class="ch cd" x="632.8" y="48">カ</text>
<text class="ch cd" x="632.8" y="64">テ</text>
<text class="ch cd" x="632.8" y="80">ム</text>
<text class="ch cd" x="632.8" y="96">ロ</text>
<text class="ch cd" x="632.8" y="112">ル</text>
<text class="ch cd" x="632.8" y="128">リ</text>
<text class="ch cd" x="632.8" y="144">ニ</text>
<text class="ch cd" x="632.8" y="160">カ</text>
<text class="ch cd" x="632.8" y="176">6</text>
<text class="ch cd" x="632.8" y="192">2</text>
<text class="ch cd" x="632.8" y="208">タ</text>
<text class="ch cd" x="632.8" y="224">ワ</text>
<text class="ch cd" x="632.8" y="240">ト</text>
<text class="ch cm" x="632.8" y="256">ソ</text>
<text class="ch cm" x="632.8" y="272">5</text>
<text class="ch cm" x="632.8" y="288">ス</text>
<text class="ch cb" x="632.8" y="304">コ</text>
<text class="ch cb" x="632.8" y="320">イ</text>
<text class="ch cl" x="632.8" y="336">ウ</text>
</g>
<g style="transform:translateY(-352px);animation:r34 5.3s linear 6.4s infinite">
<text class="ch cd" x="651.7" y="0">オ</text>
<text class="ch cd" x="651.7" y="16">ホ</text>
<text class="ch cd" x="651.7" y="32">ヒ</text>
<text class="ch cd" x="651.7" y="48">ル</text>
<text class="ch cd" x="651.7" y="64">ユ</text>
<text class="ch cd" x="651.7" y="80">ス</text>
<text class="ch cd" x="651.7" y="96">ン</text>
<text class="ch cd" x="651.7" y="112">ヲ</text>
<text class="ch cd" x="651.7" y="128">ノ</text>
<text class="ch cd" x="651.7" y="144">ミ</text>
<text class="ch cd" x="651.7" y="160">ハ</text>
<text class="ch cd" x="651.7" y="176">タ</text>
<text class="ch cd" x="651.7" y="192">コ</text>
<text class="ch cd" x="651.7" y="208">レ</text>
<text class="ch cd" x="651.7" y="224">ヲ</text>
<text class="ch cd" x="651.7" y="240">ア</text>
<text class="ch cm" x="651.7" y="256">2</text>
<text class="ch cm" x="651.7" y="272">9</text>
<text class="ch cm" x="651.7" y="288">3</text>
<text class="ch cb" x="651.7" y="304">キ</text>
<text class="ch cb" x="651.7" y="320">3</text>
<text class="ch cl" x="651.7" y="336">フ</text>
</g>
<g style="transform:translateY(-336px);animation:r35 9.4s linear 3.4s infinite">
<text class="ch cd" x="670.6" y="0">メ</text>
<text class="ch cd" x="670.6" y="16">ホ</text>
<text class="ch cd" x="670.6" y="32">エ</text>
<text class="ch cd" x="670.6" y="48">ヤ</text>
<text class="ch cd" x="670.6" y="64">タ</text>
<text class="ch cd" x="670.6" y="80">8</text>
<text class="ch cd" x="670.6" y="96">ク</text>
<text class="ch cd" x="670.6" y="112">ホ</text>
<text class="ch cd" x="670.6" y="128">ケ</text>
<text class="ch cd" x="670.6" y="144">5</text>
<text class="ch cd" x="670.6" y="160">ホ</text>
<text class="ch cd" x="670.6" y="176">ロ</text>
<text class="ch cd" x="670.6" y="192">メ</text>
<text class="ch cd" x="670.6" y="208">ヤ</text>
<text class="ch cd" x="670.6" y="224">ラ</text>
<text class="ch cm" x="670.6" y="240">ナ</text>
<text class="ch cm" x="670.6" y="256">2</text>
<text class="ch cm" x="670.6" y="272">ヘ</text>
<text class="ch cb" x="670.6" y="288">リ</text>
<text class="ch cb" x="670.6" y="304">6</text>
<text class="ch cl" x="670.6" y="320">0</text>
</g>
<g style="transform:translateY(-288px);animation:r36 5.6s linear 0.6s infinite">
<text class="ch cd" x="689.4" y="0">ヘ</text>
<text class="ch cd" x="689.4" y="16">サ</text>
<text class="ch cd" x="689.4" y="32">1</text>
<text class="ch cd" x="689.4" y="48">9</text>
<text class="ch cd" x="689.4" y="64">マ</text>
<text class="ch cd" x="689.4" y="80">ヘ</text>
<text class="ch cd" x="689.4" y="96">チ</text>
<text class="ch cd" x="689.4" y="112">2</text>
<text class="ch cd" x="689.4" y="128">タ</text>
<text class="ch cd" x="689.4" y="144">7</text>
<text class="ch cd" x="689.4" y="160">ル</text>
<text class="ch cd" x="689.4" y="176">ツ</text>
<text class="ch cm" x="689.4" y="192">3</text>
<text class="ch cm" x="689.4" y="208">3</text>
<text class="ch cm" x="689.4" y="224">メ</text>
<text class="ch cb" x="689.4" y="240">ミ</text>
<text class="ch cb" x="689.4" y="256">ル</text>
<text class="ch cl" x="689.4" y="272">タ</text>
</g>
<g style="transform:translateY(-224px);animation:r37 4.4s linear 3.3s infinite">
<text class="ch cd" x="708.3" y="0">タ</text>
<text class="ch cd" x="708.3" y="16">ツ</text>
<text class="ch cd" x="708.3" y="32">ニ</text>
<text class="ch cd" x="708.3" y="48">ナ</text>
<text class="ch cd" x="708.3" y="64">モ</text>
<text class="ch cd" x="708.3" y="80">カ</text>
<text class="ch cd" x="708.3" y="96">ケ</text>
<text class="ch cd" x="708.3" y="112">コ</text>
<text class="ch cm" x="708.3" y="128">ソ</text>
<text class="ch cm" x="708.3" y="144">ノ</text>
<text class="ch cm" x="708.3" y="160">ヲ</text>
<text class="ch cb" x="708.3" y="176">コ</text>
<text class="ch cb" x="708.3" y="192">ン</text>
<text class="ch cl" x="708.3" y="208">セ</text>
</g>
<g style="transform:translateY(-288px);animation:r38 5.8s linear 3.1s infinite">
<text class="ch cd" x="727.2" y="0">ホ</text>
<text class="ch cd" x="727.2" y="16">ヒ</text>
<text class="ch cd" x="727.2" y="32">エ</text>
<text class="ch cd" x="727.2" y="48">セ</text>
<text class="ch cd" x="727.2" y="64">7</text>
<text class="ch cd" x="727.2" y="80">ヒ</text>
<text class="ch cd" x="727.2" y="96">ノ</text>
<text class="ch cd" x="727.2" y="112">3</text>
<text class="ch cd" x="727.2" y="128">ヨ</text>
<text class="ch cd" x="727.2" y="144">ヲ</text>
<text class="ch cd" x="727.2" y="160">イ</text>
<text class="ch cd" x="727.2" y="176">8</text>
<text class="ch cm" x="727.2" y="192">2</text>
<text class="ch cm" x="727.2" y="208">ユ</text>
<text class="ch cm" x="727.2" y="224">ノ</text>
<text class="ch cb" x="727.2" y="240">マ</text>
<text class="ch cb" x="727.2" y="256">ア</text>
<text class="ch cl" x="727.2" y="272">ヌ</text>
</g>
<g style="transform:translateY(-256px);animation:r39 8.1s linear 3.2s infinite">
<text class="ch cd" x="746.1" y="0">モ</text>
<text class="ch cd" x="746.1" y="16">1</text>
<text class="ch cd" x="746.1" y="32">1</text>
<text class="ch cd" x="746.1" y="48">モ</text>
<text class="ch cd" x="746.1" y="64">5</text>
<text class="ch cd" x="746.1" y="80">ラ</text>
<text class="ch cd" x="746.1" y="96">ソ</text>
<text class="ch cd" x="746.1" y="112">ミ</text>
<text class="ch cd" x="746.1" y="128">ソ</text>
<text class="ch cd" x="746.1" y="144">ツ</text>
<text class="ch cm" x="746.1" y="160">フ</text>
<text class="ch cm" x="746.1" y="176">ミ</text>
<text class="ch cm" x="746.1" y="192">イ</text>
<text class="ch cb" x="746.1" y="208">ノ</text>
<text class="ch cb" x="746.1" y="224">ニ</text>
<text class="ch cl" x="746.1" y="240">ロ</text>
</g>
<g style="transform:translateY(-192px);animation:r40 7.9s linear 1.1s infinite">
<text class="ch cd" x="765.0" y="0">7</text>
<text class="ch cd" x="765.0" y="16">ホ</text>
<text class="ch cd" x="765.0" y="32">ケ</text>
<text class="ch cd" x="765.0" y="48">リ</text>
<text class="ch cd" x="765.0" y="64">モ</text>
<text class="ch cd" x="765.0" y="80">イ</text>
<text class="ch cm" x="765.0" y="96">ハ</text>
<text class="ch cm" x="765.0" y="112">ヨ</text>
<text class="ch cm" x="765.0" y="128">ユ</text>
<text class="ch cb" x="765.0" y="144">ロ</text>
<text class="ch cb" x="765.0" y="160">イ</text>
<text class="ch cl" x="765.0" y="176">カ</text>
</g>
<g style="transform:translateY(-272px);animation:r41 4.5s linear 0.2s infinite">
<text class="ch cd" x="783.9" y="0">シ</text>
<text class="ch cd" x="783.9" y="16">エ</text>
<text class="ch cd" x="783.9" y="32">チ</text>
<text class="ch cd" x="783.9" y="48">ノ</text>
<text class="ch cd" x="783.9" y="64">ナ</text>
<text class="ch cd" x="783.9" y="80">セ</text>
<text class="ch cd" x="783.9" y="96">ホ</text>
<text class="ch cd" x="783.9" y="112">ナ</text>
<text class="ch cd" x="783.9" y="128">ニ</text>
<text class="ch cd" x="783.9" y="144">2</text>
<text class="ch cd" x="783.9" y="160">ノ</text>
<text class="ch cm" x="783.9" y="176">ツ</text>
<text class="ch cm" x="783.9" y="192">2</text>
<text class="ch cm" x="783.9" y="208">7</text>
<text class="ch cb" x="783.9" y="224">ヒ</text>
<text class="ch cb" x="783.9" y="240">チ</text>
<text class="ch cl" x="783.9" y="256">7</text>
</g>
<g style="transform:translateY(-288px);animation:r42 6.8s linear 0.9s infinite">
<text class="ch cd" x="802.8" y="0">エ</text>
<text class="ch cd" x="802.8" y="16">ヌ</text>
<text class="ch cd" x="802.8" y="32">ソ</text>
<text class="ch cd" x="802.8" y="48">レ</text>
<text class="ch cd" x="802.8" y="64">オ</text>
<text class="ch cd" x="802.8" y="80">3</text>
<text class="ch cd" x="802.8" y="96">レ</text>
<text class="ch cd" x="802.8" y="112">ウ</text>
<text class="ch cd" x="802.8" y="128">2</text>
<text class="ch cd" x="802.8" y="144">イ</text>
<text class="ch cd" x="802.8" y="160">タ</text>
<text class="ch cd" x="802.8" y="176">ス</text>
<text class="ch cm" x="802.8" y="192">7</text>
<text class="ch cm" x="802.8" y="208">イ</text>
<text class="ch cm" x="802.8" y="224">リ</text>
<text class="ch cb" x="802.8" y="240">コ</text>
<text class="ch cb" x="802.8" y="256">タ</text>
<text class="ch cl" x="802.8" y="272">ケ</text>
</g>
<g style="transform:translateY(-208px);animation:r4 5.0s linear 2.5s infinite">
<text class="ch cd" x="821.7" y="0">ホ</text>
<text class="ch cd" x="821.7" y="16">ヲ</text>
<text class="ch cd" x="821.7" y="32">チ</text>
<text class="ch cd" x="821.7" y="48">3</text>
<text class="ch cd" x="821.7" y="64">ネ</text>
<text class="ch cd" x="821.7" y="80">サ</text>
<text class="ch cd" x="821.7" y="96">ラ</text>
<text class="ch cm" x="821.7" y="112">ラ</text>
<text class="ch cm" x="821.7" y="128">1</text>
<text class="ch cm" x="821.7" y="144">ン</text>
<text class="ch cb" x="821.7" y="160">ク</text>
<text class="ch cb" x="821.7" y="176">3</text>
<text class="ch cl" x="821.7" y="192">6</text>
</g>
<g style="transform:translateY(-304px);animation:r43 8.1s linear 6.4s infinite">
<text class="ch cd" x="840.6" y="0">イ</text>
<text class="ch cd" x="840.6" y="16">ト</text>
<text class="ch cd" x="840.6" y="32">ユ</text>
<text class="ch cd" x="840.6" y="48">ワ</text>
<text class="ch cd" x="840.6" y="64">ノ</text>
<text class="ch cd" x="840.6" y="80">ハ</text>
<text class="ch cd" x="840.6" y="96">ン</text>
<text class="ch cd" x="840.6" y="112">ス</text>
<text class="ch cd" x="840.6" y="128">オ</text>
<text class="ch cd" x="840.6" y="144">ヨ</text>
<text class="ch cd" x="840.6" y="160">ヲ</text>
<text class="ch cd" x="840.6" y="176">7</text>
<text class="ch cd" x="840.6" y="192">ル</text>
<text class="ch cm" x="840.6" y="208">タ</text>
<text class="ch cm" x="840.6" y="224">キ</text>
<text class="ch cm" x="840.6" y="240">ヲ</text>
<text class="ch cb" x="840.6" y="256">3</text>
<text class="ch cb" x="840.6" y="272">ト</text>
<text class="ch cl" x="840.6" y="288">8</text>
</g>
</g>
<rect width="850" height="479" fill="url(#f)" rx="6"/>
<rect class="pb" x="115.0" y="25" width="620" height="55" rx="12"/>
<rect class="ps" x="115.0" y="25" width="620" height="55" rx="12"/>
<text class="tt" x="425.0" y="60" text-anchor="middle" font-size="20">Hi there 👋</text>
<rect class="pb" x="115.0" y="100" width="620" height="175" rx="12"/>
<rect class="ps" x="115.0" y="100" width="620" height="175" rx="12"/>
<line class="div" x1="321.66666666666663" y1="115" x2="321.66666666666663" y2="260"/>
<line class="div" x1="528.3333333333333" y1="115" x2="528.3333333333333" y2="260"/>
<circle class="ring" cx="424.99999999999994" cy="178" r="42"/>
<text x="424.99999999999994" y="138" text-anchor="middle" font-size="18">🔥</text>
<text class="tn" x="424.99999999999994" y="188" text-anchor="middle" font-size="28">36</text>
<text class="ts" x="424.99999999999994" y="240" text-anchor="middle" font-size="11">Current Streak</text>
<text class="tp" x="424.99999999999994" y="255" text-anchor="middle">Mar 19 - Apr 23</text>
<text x="218.33333333333331" y="150" text-anchor="middle" font-size="16">⭐</text>
<text class="tn" x="218.33333333333331" y="183" text-anchor="middle" font-size="26">4797</text>
<text class="ts" x="218.33333333333331" y="202" text-anchor="middle" font-size="11">Total Contributions</text>
<text class="tp" x="218.33333333333331" y="218" text-anchor="middle">Sep 08, 2017 - Apr 23, 2026</text>
<text x="631.6666666666666" y="150" text-anchor="middle" font-size="16">🏆</text>
<text class="tn" x="631.6666666666666" y="183" text-anchor="middle" font-size="26">36</text>
<text class="ts" x="631.6666666666666" y="202" text-anchor="middle" font-size="11">Longest Streak</text>
<text class="tp" x="631.6666666666666" y="218" text-anchor="middle">Mar 19 - Apr 23</text>
<rect class="pb" x="115.0" y="295" width="620" height="159" rx="12"/>
<rect class="ps" x="115.0" y="295" width="620" height="159" rx="12"/>
<text class="tt" x="135.0" y="320" font-size="14">Most Used Languages</text>
<circle cx="140.0" cy="350" r="5" fill="#dea584"/>
<text class="tl" x="151.0" y="354" font-size="12">Rust</text>
<text class="tp" x="415.0" y="354" text-anchor="end">51.6%</text>
<circle cx="430.0" cy="350" r="5" fill="#3178c6"/>
<text class="tl" x="441.0" y="354" font-size="12">TypeScript</text>
<text class="tp" x="705.0" y="354" text-anchor="end">43.0%</text>
<circle cx="140.0" cy="376" r="5" fill="#8f14e9"/>
<text class="tl" x="151.0" y="380" font-size="12">Metal</text>
<text class="tp" x="415.0" y="380" text-anchor="end">1.8%</text>
<circle cx="430.0" cy="376" r="5" fill="#02f88c"/>
<text class="tl" x="441.0" y="380" font-size="12">Ada</text>
<text class="tp" x="705.0" y="380" text-anchor="end">1.7%</text>
<circle cx="140.0" cy="402" r="5" fill="#3572A5"/>
<text class="tl" x="151.0" y="406" font-size="12">Python</text>
<text class="tp" x="415.0" y="406" text-anchor="end">1.2%</text>
<circle cx="430.0" cy="402" r="5" fill="#89e051"/>
<text class="tl" x="441.0" y="406" font-size="12">Shell</text>
<text class="tp" x="705.0" y="406" text-anchor="end">0.4%</text>
<circle cx="140.0" cy="428" r="5" fill="#384d54"/>
<text class="tl" x="151.0" y="432" font-size="12">Dockerfile</text>
<text class="tp" x="415.0" y="432" text-anchor="end">0.1%</text>
<circle cx="430.0" cy="428" r="5" fill="#012456"/>
<text class="tl" x="441.0" y="432" font-size="12">PowerShell</text>
<text class="tp" x="705.0" y="432" text-anchor="end">0.1%</text>
</svg>